<svg width="40" height="40" viewBox="0 0 40 40" fill="none" xmlns="http://www.w3.org/2000/svg">
<circle cx="19.9999" cy="19.9999" r="19.9999" fill="black" fill-opacity="0.2"/>
<g clip-path="url(#clip0_45_32144)">
<path d="M15.4803 32.829C16.3882 32.829 16.6447 32.4737 16.6447 32.0197C16.6447 31.5658 16.6447 30.579 16.625 29.1776C11.9079 30.1842 10.9013 26.9276 10.9013 26.9276C10.1316 25.0132 9.00658 24.4803 9.00658 24.4803C7.46711 23.454 9.125 23.4737 9.125 23.4737C10.8224 23.5921 11.7303 25.1908 11.7303 25.1908C13.25 27.7566 15.6974 27.0066 16.6645 26.5724C16.7434 25.7237 17.1184 24.9145 17.75 24.3224C13.9803 23.9079 10.0132 22.4671 10.0132 16.0724C9.99342 14.4145 10.625 12.7961 11.7697 11.5921C11.5724 11.1776 11 9.48027 11.9079 7.17106C11.9079 7.17106 13.3289 6.71712 16.5855 8.88817C19.3684 8.13817 22.2895 8.13817 25.0724 8.88817C28.2895 6.73685 29.7303 7.17106 29.7303 7.17106C30.6382 9.46054 30.0658 11.1579 29.9079 11.5921C31.0526 12.7961 31.6645 14.4145 31.6447 16.0724C31.6447 22.4869 27.6776 23.8882 23.8882 24.3026C24.4803 24.7961 25.0329 25.8224 25.0329 27.3816C25.0329 29.6316 25.0132 31.4079 25.0132 31.9408C25.0132 32.375 25.2105 32.7303 26.1776 32.7303L15.4803 32.829Z" fill="#667085"/>
</g>
<defs>
<clipPath id="clip0_45_32144">
<rect width="24" height="24" fill="white" transform="translate(8 8)"/>
</clipPath>
</defs>
</svg>
