<svg width="40" height="40" viewBox="0 0 40 40" fill="none" xmlns="http://www.w3.org/2000/svg">
<circle cx="19.9999" cy="19.9999" r="19.9999" fill="black" fill-opacity="0.2"/>
<g clip-path="url(#clip0_2_48524)">
<path d="M8 20C8 13.3832 13.3832 8 20 8C22.6723 8 25.2017 8.85977 27.3147 10.4864L24.5262 14.1088C23.2197 13.1031 21.6545 12.5714 20 12.5714C15.9039 12.5714 12.5714 15.9039 12.5714 20C12.5714 24.0961 15.9039 27.4286 20 27.4286C23.2991 27.4286 26.1026 25.2671 27.0688 22.2857H20V17.7143H32V20C32 26.6168 26.6168 32 20 32C13.3832 32 8 26.6168 8 20Z" fill="#667085"/>
</g>
<defs>
<clipPath id="clip0_2_48524">
<rect width="24" height="24" fill="white" transform="translate(8 8)"/>
</clipPath>
</defs>
</svg>
