<svg width="40" height="40" viewBox="0 0 40 40" fill="none" xmlns="http://www.w3.org/2000/svg">
<path d="M19.9999 40.0003C31.0455 40.0003 39.9998 31.046 39.9998 20.0004C39.9998 8.95474 31.0455 0.000488281 19.9999 0.000488281C8.95426 0.000488281 0 8.95474 0 20.0004C0 31.046 8.95426 40.0003 19.9999 40.0003Z" fill="black" fill-opacity="0.2"/>
<path d="M32.9552 11.9667C31.9807 12.3922 30.95 12.675 29.8947 12.8061C31.0071 12.1465 31.8386 11.1014 32.2315 9.8693C31.1904 10.4873 30.0511 10.9225 28.8631 11.1561C28.1352 10.3776 27.1897 9.83612 26.1498 9.60216C25.11 9.36821 24.0237 9.45259 23.0324 9.84433C22.0412 10.2361 21.1907 10.9171 20.5917 11.7987C19.9927 12.6803 19.6728 13.7218 19.6737 14.7877C19.67 15.1945 19.7115 15.6005 19.7974 15.9982C17.6842 15.8944 15.6166 15.346 13.7298 14.3887C11.843 13.4315 10.1793 12.087 8.84746 10.443C8.16289 11.6125 7.9508 12.9993 8.25454 14.3199C8.55829 15.6405 9.35494 16.7953 10.4817 17.5482C9.64068 17.5255 8.8175 17.3008 8.08168 16.8929V16.9508C8.08404 18.1767 8.50835 19.3644 9.28328 20.3142C10.0582 21.264 11.1365 21.9182 12.3369 22.1666C11.8826 22.2859 11.4145 22.3444 10.9448 22.3403C10.6066 22.3465 10.2687 22.3165 9.93693 22.2508C10.2808 23.3051 10.943 24.2269 11.8322 24.8894C12.7214 25.552 13.7941 25.9228 14.9027 25.9508C13.0241 27.4192 10.7082 28.2168 8.32378 28.2166C7.89893 28.2202 7.47432 28.1956 7.05273 28.1429C9.48396 29.7104 12.3179 30.5386 15.2106 30.5271C24.9868 30.5271 30.3316 22.4298 30.3316 15.4114C30.3316 15.1772 30.3316 14.9508 30.3131 14.7245C31.354 13.9733 32.2493 13.0388 32.9552 11.9667Z" fill="#667085"/>
</svg>
