<svg width="89" viewBox="0 0 89 51" fill="none" xmlns="http://www.w3.org/2000/svg">
<path d="M1.45598 26V14.8H6.31998C7.06665 14.8 7.69598 14.912 8.20798 15.136C8.73065 15.3493 9.12531 15.664 9.39198 16.08C9.65865 16.496 9.79198 16.992 9.79198 17.568C9.79198 18.208 9.63198 18.7413 9.31198 19.168C8.99198 19.5947 8.53331 19.888 7.93598 20.048L7.91998 19.728C8.41065 19.8453 8.84265 20.0373 9.21598 20.304C9.58931 20.5707 9.87731 20.9013 10.08 21.296C10.2826 21.6907 10.384 22.1387 10.384 22.64C10.384 23.1947 10.2933 23.6853 10.112 24.112C9.93064 24.528 9.66398 24.8747 9.31198 25.152C8.95998 25.4293 8.54398 25.6427 8.06398 25.792C7.59464 25.9307 7.06664 26 6.47998 26H1.45598ZM3.75998 23.92H6.38398C6.72531 23.92 7.01331 23.872 7.24798 23.776C7.49331 23.6693 7.67998 23.5093 7.80798 23.296C7.93598 23.0827 7.99998 22.832 7.99998 22.544C7.99998 22.2667 7.93064 22.032 7.79198 21.84C7.65331 21.648 7.45598 21.504 7.19998 21.408C6.95464 21.3013 6.65598 21.248 6.30398 21.248H3.75998V23.92ZM3.75998 19.344H6.03198C6.31998 19.344 6.57065 19.2907 6.78398 19.184C6.99731 19.0773 7.15731 18.9333 7.26398 18.752C7.38131 18.5707 7.43998 18.3573 7.43998 18.112C7.43998 17.7173 7.31198 17.4133 7.05598 17.2C6.79998 16.9867 6.41598 16.88 5.90398 16.88H3.75998V19.344Z" fill="#5865F2"/>
<path d="M17.5254 26.16C16.704 26.16 15.9467 26.016 15.2534 25.728C14.56 25.44 13.952 25.04 13.4294 24.528C12.9174 24.0053 12.5227 23.392 12.2454 22.688C11.968 21.9733 11.8294 21.2 11.8294 20.368C11.8294 19.5253 11.968 18.7573 12.2454 18.064C12.5227 17.36 12.9174 16.7467 13.4294 16.224C13.952 15.7013 14.56 15.296 15.2534 15.008C15.9467 14.72 16.704 14.576 17.5254 14.576C18.3574 14.576 19.1147 14.72 19.7974 15.008C20.4907 15.296 21.0934 15.7013 21.6054 16.224C22.128 16.7467 22.528 17.36 22.8054 18.064C23.0827 18.768 23.2214 19.536 23.2214 20.368C23.2214 21.2 23.0827 21.968 22.8054 22.672C22.528 23.376 22.128 23.9893 21.6054 24.512C21.0934 25.0347 20.4907 25.44 19.7974 25.728C19.1147 26.016 18.3574 26.16 17.5254 26.16ZM17.5254 23.888C17.9947 23.888 18.4267 23.8027 18.8214 23.632C19.2267 23.4613 19.5734 23.216 19.8614 22.896C20.1494 22.576 20.3734 22.2027 20.5334 21.776C20.704 21.3493 20.7894 20.88 20.7894 20.368C20.7894 19.856 20.704 19.3867 20.5334 18.96C20.3734 18.5333 20.1494 18.1653 19.8614 17.856C19.5734 17.536 19.2267 17.2907 18.8214 17.12C18.4267 16.9387 17.9947 16.848 17.5254 16.848C17.056 16.848 16.624 16.9387 16.2294 17.12C15.8347 17.2907 15.488 17.536 15.1894 17.856C14.8907 18.1653 14.6614 18.5333 14.5014 18.96C14.352 19.3867 14.2774 19.856 14.2774 20.368C14.2774 20.88 14.352 21.3493 14.5014 21.776C14.6614 22.2027 14.8907 22.576 15.1894 22.896C15.488 23.216 15.8347 23.4613 16.2294 23.632C16.624 23.8027 17.056 23.888 17.5254 23.888Z" fill="#5865F2"/>
<path d="M27.2451 26V16.96H23.9811V14.8H33.0051V16.96H29.6451V26H27.2451Z" fill="#5865F2"/>
<path d="M4.77598 10.12C4.15998 10.12 3.59198 10.016 3.07198 9.808C2.55998 9.592 2.11198 9.292 1.72798 8.908C1.35198 8.516 1.05998 8.056 0.851978 7.528C0.643978 6.992 0.539978 6.408 0.539978 5.776C0.539978 5.16 0.647978 4.592 0.863978 4.072C1.07998 3.544 1.38398 3.088 1.77598 2.704C2.16798 2.312 2.62798 2.008 3.15598 1.792C3.68398 1.576 4.25598 1.468 4.87198 1.468C5.27198 1.468 5.66398 1.524 6.04798 1.636C6.43998 1.74 6.79598 1.896 7.11598 2.104C7.44398 2.312 7.72398 2.56 7.95598 2.848L6.82798 4.096C6.63598 3.904 6.43598 3.74 6.22798 3.604C6.02798 3.46 5.81198 3.352 5.57998 3.28C5.35598 3.2 5.11598 3.16 4.85998 3.16C4.51598 3.16 4.19198 3.224 3.88798 3.352C3.59198 3.48 3.33198 3.66 3.10798 3.892C2.88398 4.116 2.70398 4.392 2.56798 4.72C2.43998 5.04 2.37598 5.396 2.37598 5.788C2.37598 6.188 2.43998 6.552 2.56798 6.88C2.69598 7.2 2.87598 7.476 3.10798 7.708C3.33998 7.932 3.61598 8.108 3.93598 8.236C4.26398 8.356 4.62398 8.416 5.01598 8.416C5.27198 8.416 5.51998 8.38 5.75998 8.308C5.99998 8.236 6.21998 8.136 6.41998 8.008C6.62798 7.88 6.81198 7.732 6.97198 7.564L7.84798 8.968C7.65598 9.184 7.39598 9.38 7.06798 9.556C6.74798 9.732 6.38798 9.872 5.98798 9.976C5.58798 10.072 5.18398 10.12 4.77598 10.12Z" fill="white"/>
<path d="M12.0774 10.12C11.4294 10.12 10.8494 9.98 10.3374 9.7C9.83342 9.412 9.43342 9.02 9.13742 8.524C8.84942 8.028 8.70542 7.46 8.70542 6.82C8.70542 6.18 8.84942 5.616 9.13742 5.128C9.43342 4.632 9.83342 4.24 10.3374 3.952C10.8494 3.664 11.4294 3.52 12.0774 3.52C12.7174 3.52 13.2894 3.664 13.7934 3.952C14.3054 4.24 14.7054 4.632 14.9934 5.128C15.2814 5.616 15.4254 6.18 15.4254 6.82C15.4254 7.46 15.2814 8.028 14.9934 8.524C14.7054 9.02 14.3054 9.412 13.7934 9.7C13.2894 9.98 12.7174 10.12 12.0774 10.12ZM12.0774 8.632C12.3894 8.632 12.6694 8.556 12.9174 8.404C13.1654 8.244 13.3574 8.028 13.4934 7.756C13.6374 7.476 13.7094 7.164 13.7094 6.82C13.7094 6.468 13.6374 6.156 13.4934 5.884C13.3574 5.604 13.1654 5.388 12.9174 5.236C12.6694 5.076 12.3894 4.996 12.0774 4.996C11.7574 4.996 11.4734 5.076 11.2254 5.236C10.9774 5.396 10.7814 5.612 10.6374 5.884C10.4934 6.156 10.4254 6.468 10.4334 6.82C10.4254 7.164 10.4934 7.476 10.6374 7.756C10.7814 8.028 10.9774 8.244 11.2254 8.404C11.4734 8.556 11.7574 8.632 12.0774 8.632Z" fill="white"/>
<path d="M16.6954 10V3.652H18.3394L18.3754 4.864L18.1234 4.912C18.2114 4.704 18.3274 4.516 18.4714 4.348C18.6154 4.18 18.7834 4.036 18.9754 3.916C19.1754 3.796 19.3834 3.704 19.5994 3.64C19.8154 3.568 20.0314 3.532 20.2474 3.532C20.5754 3.532 20.8714 3.584 21.1354 3.688C21.3994 3.792 21.6234 3.956 21.8074 4.18C21.9914 4.396 22.1354 4.684 22.2394 5.044L21.9754 5.02L22.0594 4.828C22.1634 4.636 22.2954 4.464 22.4554 4.312C22.6154 4.152 22.7954 4.016 22.9954 3.904C23.1954 3.784 23.4034 3.692 23.6194 3.628C23.8354 3.564 24.0474 3.532 24.2554 3.532C24.7514 3.532 25.1634 3.632 25.4914 3.832C25.8194 4.024 26.0634 4.316 26.2234 4.708C26.3914 5.1 26.4754 5.58 26.4754 6.148V10H24.7714V6.268C24.7714 5.98 24.7314 5.744 24.6514 5.56C24.5714 5.376 24.4554 5.24 24.3034 5.152C24.1514 5.056 23.9554 5.008 23.7154 5.008C23.5314 5.008 23.3594 5.04 23.1994 5.104C23.0474 5.16 22.9114 5.244 22.7914 5.356C22.6794 5.46 22.5914 5.584 22.5274 5.728C22.4634 5.872 22.4314 6.032 22.4314 6.208V10H20.7274V6.256C20.7274 5.992 20.6834 5.768 20.5954 5.584C20.5154 5.392 20.3994 5.248 20.2474 5.152C20.0954 5.056 19.9074 5.008 19.6834 5.008C19.4994 5.008 19.3274 5.04 19.1674 5.104C19.0154 5.16 18.8834 5.244 18.7714 5.356C18.6594 5.46 18.5674 5.584 18.4954 5.728C18.4314 5.872 18.3994 6.028 18.3994 6.196V10H16.6954Z" fill="white"/>
<path d="M28.0861 10V3.652H29.7301L29.7661 4.864L29.5141 4.912C29.6021 4.704 29.7181 4.516 29.8621 4.348C30.0061 4.18 30.1741 4.036 30.3661 3.916C30.5661 3.796 30.7741 3.704 30.9901 3.64C31.2061 3.568 31.4221 3.532 31.6381 3.532C31.9661 3.532 32.2621 3.584 32.5261 3.688C32.7901 3.792 33.0141 3.956 33.1981 4.18C33.3821 4.396 33.5261 4.684 33.6301 5.044L33.3661 5.02L33.4501 4.828C33.5541 4.636 33.6861 4.464 33.8461 4.312C34.0061 4.152 34.1861 4.016 34.3861 3.904C34.5861 3.784 34.7941 3.692 35.0101 3.628C35.2261 3.564 35.4381 3.532 35.6461 3.532C36.1421 3.532 36.5541 3.632 36.8821 3.832C37.2101 4.024 37.4541 4.316 37.6141 4.708C37.7821 5.1 37.8661 5.58 37.8661 6.148V10H36.1621V6.268C36.1621 5.98 36.1221 5.744 36.0421 5.56C35.9621 5.376 35.8461 5.24 35.6941 5.152C35.5421 5.056 35.3461 5.008 35.1061 5.008C34.9221 5.008 34.7501 5.04 34.5901 5.104C34.4381 5.16 34.3021 5.244 34.1821 5.356C34.0701 5.46 33.9821 5.584 33.9181 5.728C33.8541 5.872 33.8221 6.032 33.8221 6.208V10H32.1181V6.256C32.1181 5.992 32.0741 5.768 31.9861 5.584C31.9061 5.392 31.7901 5.248 31.6381 5.152C31.4861 5.056 31.2981 5.008 31.0741 5.008C30.8901 5.008 30.7181 5.04 30.5581 5.104C30.4061 5.16 30.2741 5.244 30.1621 5.356C30.0501 5.46 29.9581 5.584 29.8861 5.728C29.8221 5.872 29.7901 6.028 29.7901 6.196V10H28.0861Z" fill="white"/>
<path d="M41.6727 10.12C41.2087 10.12 40.8087 10.02 40.4727 9.82C40.1447 9.612 39.8887 9.32 39.7047 8.944C39.5287 8.56 39.4407 8.1 39.4407 7.564V3.652H41.1447V7.288C41.1447 7.576 41.1927 7.828 41.2887 8.044C41.3847 8.252 41.5207 8.412 41.6967 8.524C41.8727 8.636 42.0887 8.692 42.3447 8.692C42.5287 8.692 42.7007 8.664 42.8607 8.608C43.0207 8.544 43.1567 8.456 43.2687 8.344C43.3807 8.232 43.4687 8.1 43.5327 7.948C43.5967 7.796 43.6287 7.632 43.6287 7.456V3.652H45.3327V10H43.7127L43.6527 8.692L43.9647 8.548C43.8687 8.844 43.7087 9.112 43.4847 9.352C43.2607 9.592 42.9927 9.78 42.6807 9.916C42.3687 10.052 42.0327 10.12 41.6727 10.12Z" fill="white"/>
<path d="M47.0473 10V3.652H48.6793L48.7273 4.948L48.3913 5.092C48.4793 4.804 48.6353 4.544 48.8593 4.312C49.0913 4.072 49.3673 3.88 49.6873 3.736C50.0073 3.592 50.3433 3.52 50.6953 3.52C51.1753 3.52 51.5753 3.616 51.8953 3.808C52.2233 4 52.4673 4.292 52.6273 4.684C52.7953 5.068 52.8793 5.544 52.8793 6.112V10H51.1753V6.244C51.1753 5.956 51.1353 5.716 51.0553 5.524C50.9753 5.332 50.8513 5.192 50.6833 5.104C50.5233 5.008 50.3233 4.968 50.0833 4.984C49.8913 4.984 49.7113 5.016 49.5433 5.08C49.3833 5.136 49.2433 5.22 49.1233 5.332C49.0113 5.444 48.9193 5.572 48.8473 5.716C48.7833 5.86 48.7513 6.016 48.7513 6.184V10H47.9113C47.7273 10 47.5633 10 47.4193 10C47.2753 10 47.1513 10 47.0473 10Z" fill="white"/>
<path d="M54.6561 10V3.652H56.3601V10H54.6561ZM55.4961 2.344C55.1681 2.344 54.9121 2.264 54.7281 2.104C54.5441 1.944 54.4521 1.716 54.4521 1.42C54.4521 1.148 54.5441 0.928003 54.7281 0.760002C54.9201 0.584002 55.1761 0.496002 55.4961 0.496002C55.8241 0.496002 56.0801 0.580002 56.2641 0.748003C56.4481 0.908002 56.5401 1.132 56.5401 1.42C56.5401 1.7 56.4441 1.924 56.2521 2.092C56.0681 2.26 55.8161 2.344 55.4961 2.344Z" fill="white"/>
<path d="M58.7921 10V2.044H60.4961V10H58.7921ZM57.6041 5.176V3.652H61.7921V5.176H57.6041Z" fill="white"/>
<path d="M63.7908 12.76L65.1828 9.496L65.2068 10.48L62.1108 3.652H64.0428L65.5908 7.312C65.6548 7.448 65.7148 7.608 65.7708 7.792C65.8348 7.968 65.8868 8.14 65.9268 8.308L65.6388 8.428C65.6868 8.292 65.7428 8.136 65.8068 7.96C65.8708 7.784 65.9348 7.596 65.9988 7.396L67.3308 3.652H69.2748L66.6108 10L65.5188 12.76H63.7908Z" fill="white"/>
<path d="M81.634 17.0328C78.5746 15.6291 75.294 14.5948 71.8638 14.0025C71.8013 13.9911 71.7389 14.0196 71.7067 14.0768C71.2848 14.8272 70.8174 15.8062 70.4902 16.5757C66.8008 16.0233 63.1303 16.0233 59.5166 16.5757C59.1893 15.7891 58.7049 14.8272 58.2811 14.0768C58.2489 14.0215 58.1865 13.993 58.1241 14.0025C54.6958 14.5929 51.4151 15.6272 48.3538 17.0328C48.3273 17.0443 48.3046 17.0633 48.2896 17.0881C42.0668 26.3848 40.3621 35.453 41.1983 44.4088C41.2021 44.4526 41.2267 44.4945 41.2608 44.5211C45.3664 47.5362 49.3434 49.3666 53.2465 50.5799C53.309 50.599 53.3752 50.5761 53.4149 50.5247C54.3382 49.2638 55.1613 47.9344 55.8669 46.5363C55.9086 46.4544 55.8688 46.3573 55.7837 46.3249C54.4782 45.8297 53.2352 45.2259 52.0394 44.5402C51.9449 44.485 51.9373 44.3497 52.0243 44.2849C52.2759 44.0964 52.5276 43.9002 52.7679 43.7021C52.8114 43.6659 52.8719 43.6583 52.923 43.6811C60.7785 47.2677 69.2831 47.2677 77.0459 43.6811C77.097 43.6564 77.1576 43.664 77.2029 43.7002C77.4433 43.8983 77.6949 44.0964 77.9484 44.2849C78.0354 44.3497 78.0297 44.485 77.9352 44.5402C76.7394 45.2392 75.4964 45.8297 74.189 46.323C74.1039 46.3554 74.066 46.4544 74.1077 46.5363C74.8285 47.9324 75.6515 49.2619 76.5578 50.5228C76.5956 50.5761 76.6637 50.599 76.7262 50.5799C80.6482 49.3666 84.6252 47.5362 88.7308 44.5211C88.7668 44.4945 88.7895 44.4545 88.7933 44.4107C89.7941 34.0568 87.117 25.063 81.6964 17.09C81.6832 17.0633 81.6605 17.0443 81.634 17.0328ZM57.04 38.9556C54.675 38.9556 52.7262 36.7844 52.7262 34.1178C52.7262 31.4512 54.6372 29.2799 57.04 29.2799C59.4617 29.2799 61.3916 31.4703 61.3537 34.1178C61.3537 36.7844 59.4428 38.9556 57.04 38.9556ZM72.9895 38.9556C70.6245 38.9556 68.6758 36.7844 68.6758 34.1178C68.6758 31.4512 70.5866 29.2799 72.9895 29.2799C75.4112 29.2799 77.3411 31.4703 77.3033 34.1178C77.3033 36.7844 75.4112 38.9556 72.9895 38.9556Z" fill="#5865F2"/>
</svg>
