<svg id="visual" viewBox="0 0 960 540" width="960" height="540" xmlns="http://www.w3.org/2000/svg" xmlns:xlink="http://www.w3.org/1999/xlink" version="1.1"><path d="M863 540L872.7 530C882.3 520 901.7 500 904.8 480C908 460 895 440 895 420C895 400 908 380 906.5 360C905 340 889 320 881 300C873 280 873 260 869.7 240C866.3 220 859.7 200 864.3 180C869 160 885 140 896.3 120C907.7 100 914.3 80 914.3 60C914.3 40 907.7 20 904.3 10L901 0L960 0L960 10C960 20 960 40 960 60C960 80 960 100 960 120C960 140 960 160 960 180C960 200 960 220 960 240C960 260 960 280 960 300C960 320 960 340 960 360C960 380 960 400 960 420C960 440 960 460 960 480C960 500 960 520 960 530L960 540Z" fill="#3bb08b"></path><path d="M834 540L835.7 530C837.3 520 840.7 500 835.8 480C831 460 818 440 818 420C818 400 831 380 835.8 360C840.7 340 837.3 320 834.2 300C831 280 828 260 815.2 240C802.3 220 779.7 200 779.7 180C779.7 160 802.3 140 820 120C837.7 100 850.3 80 856.7 60C863 40 863 20 863 10L863 0L902 0L905.3 10C908.7 20 915.3 40 915.3 60C915.3 80 908.7 100 897.3 120C886 140 870 160 865.3 180C860.7 200 867.3 220 870.7 240C874 260 874 280 882 300C890 320 906 340 907.5 360C909 380 896 400 896 420C896 440 909 460 905.8 480C902.7 500 883.3 520 873.7 530L864 540Z" fill="#12aa96"></path><path d="M767 540L768.7 530C770.3 520 773.7 500 768.8 480C764 460 751 440 752.5 420C754 400 770 380 781.2 360C792.3 340 798.7 320 798.7 300C798.7 280 792.3 260 773.2 240C754 220 722 200 723.7 180C725.3 160 760.7 140 783.2 120C805.7 100 815.3 80 815.3 60C815.3 40 805.7 20 800.8 10L796 0L864 0L864 10C864 20 864 40 857.7 60C851.3 80 838.7 100 821 120C803.3 140 780.7 160 780.7 180C780.7 200 803.3 220 816.2 240C829 260 832 280 835.2 300C838.3 320 841.7 340 836.8 360C832 380 819 400 819 420C819 440 832 460 836.8 480C841.7 500 838.3 520 836.7 530L835 540Z" fill="#00a39f"></path><path d="M709 540L715.5 530C722 520 735 500 731.8 480C728.7 460 709.3 440 712.5 420C715.7 400 741.3 380 757.3 360C773.3 340 779.7 320 774.8 300C770 280 754 260 734.8 240C715.7 220 693.3 200 699.8 180C706.3 160 741.7 140 757.7 120C773.7 100 770.3 80 768.7 60C767 40 767 20 767 10L767 0L797 0L801.8 10C806.7 20 816.3 40 816.3 60C816.3 80 806.7 100 784.2 120C761.7 140 726.3 160 724.7 180C723 200 755 220 774.2 240C793.3 260 799.7 280 799.7 300C799.7 320 793.3 340 782.2 360C771 380 755 400 753.5 420C752 440 765 460 769.8 480C774.7 500 771.3 520 769.7 530L768 540Z" fill="#009ba6"></path><path d="M671 540L674.2 530C677.3 520 683.7 500 677.3 480C671 460 652 440 658.5 420C665 400 697 380 716.2 360C735.3 340 741.7 320 733.7 300C725.7 280 703.3 260 682.5 240C661.7 220 642.3 200 647 180C651.7 160 680.3 140 696.3 120C712.3 100 715.7 80 717.3 60C719 40 719 20 719 10L719 0L768 0L768 10C768 20 768 40 769.7 60C771.3 80 774.7 100 758.7 120C742.7 140 707.3 160 700.8 180C694.3 200 716.7 220 735.8 240C755 260 771 280 775.8 300C780.7 320 774.3 340 758.3 360C742.3 380 716.7 400 713.5 420C710.3 440 729.7 460 732.8 480C736 500 723 520 716.5 530L710 540Z" fill="#0093aa"></path><path d="M633 540L634.5 530C636 520 639 500 627.7 480C616.3 460 590.7 440 592.3 420C594 400 623 380 645.5 360C668 340 684 320 677.5 300C671 280 642 260 624.3 240C606.7 220 600.3 200 603.7 180C607 160 620 140 632.8 120C645.7 100 658.3 80 666.3 60C674.3 40 677.7 20 679.3 10L681 0L720 0L720 10C720 20 720 40 718.3 60C716.7 80 713.3 100 697.3 120C681.3 140 652.7 160 648 180C643.3 200 662.7 220 683.5 240C704.3 260 726.7 280 734.7 300C742.7 320 736.3 340 717.2 360C698 380 666 400 659.5 420C653 440 672 460 678.3 480C684.7 500 678.3 520 675.2 530L672 540Z" fill="#008aaa"></path><path d="M498 540L510.8 530C523.7 520 549.3 500 541.3 480C533.3 460 491.7 440 480.5 420C469.3 400 488.7 380 514.3 360C540 340 572 320 565.5 300C559 280 514 260 485.2 240C456.3 220 443.7 200 448.5 180C453.3 160 475.7 140 494.8 120C514 100 530 80 536.5 60C543 40 540 20 538.5 10L537 0L682 0L680.3 10C678.7 20 675.3 40 667.3 60C659.3 80 646.7 100 633.8 120C621 140 608 160 604.7 180C601.3 200 607.7 220 625.3 240C643 260 672 280 678.5 300C685 320 669 340 646.5 360C624 380 595 400 593.3 420C591.7 440 617.3 460 628.7 480C640 500 637 520 635.5 530L634 540Z" fill="#0081aa"></path><path d="M373 540L369.8 530C366.7 520 360.3 500 336.3 480C312.3 460 270.7 440 257.8 420C245 400 261 380 280.3 360C299.7 340 322.3 320 320.8 300C319.3 280 293.7 260 282.3 240C271 220 274 200 280.3 180C286.7 160 296.3 140 315.7 120C335 100 364 80 360.8 60C357.7 40 322.3 20 304.7 10L287 0L538 0L539.5 10C541 20 544 40 537.5 60C531 80 515 100 495.8 120C476.7 140 454.3 160 449.5 180C444.7 200 457.3 220 486.2 240C515 260 560 280 566.5 300C573 320 541 340 515.3 360C489.7 380 470.3 400 481.5 420C492.7 440 534.3 460 542.3 480C550.3 500 524.7 520 511.8 530L499 540Z" fill="#0078a8"></path><path d="M345 540L338.5 530C332 520 319 500 287 480C255 460 204 440 191.2 420C178.3 400 203.7 380 227.7 360C251.7 340 274.3 320 271.2 300C268 280 239 260 229.3 240C219.7 220 229.3 200 239 180C248.7 160 258.3 140 272.7 120C287 100 306 80 298 60C290 40 255 20 237.5 10L220 0L288 0L305.7 10C323.3 20 358.7 40 361.8 60C365 80 336 100 316.7 120C297.3 140 287.7 160 281.3 180C275 200 272 220 283.3 240C294.7 260 320.3 280 321.8 300C323.3 320 300.7 340 281.3 360C262 380 246 400 258.8 420C271.7 440 313.3 460 337.3 480C361.3 500 367.7 520 370.8 530L374 540Z" fill="#006ea6"></path><path d="M57 540L55.3 530C53.7 520 50.3 500 47 480C43.7 460 40.3 440 45.2 420C50 400 63 380 67.8 360C72.7 340 69.3 320 74.2 300C79 280 92 260 93.7 240C95.3 220 85.7 200 85.7 180C85.7 160 95.3 140 93.7 120C92 100 79 80 75.7 60C72.3 40 78.7 20 81.8 10L85 0L221 0L238.5 10C256 20 291 40 299 60C307 80 288 100 273.7 120C259.3 140 249.7 160 240 180C230.3 200 220.7 220 230.3 240C240 260 269 280 272.2 300C275.3 320 252.7 340 228.7 360C204.7 380 179.3 400 192.2 420C205 440 256 460 288 480C320 500 333 520 339.5 530L346 540Z" fill="#0064a2"></path><path d="M0 540L0 530C0 520 0 500 0 480C0 460 0 440 0 420C0 400 0 380 0 360C0 340 0 320 0 300C0 280 0 260 0 240C0 220 0 200 0 180C0 160 0 140 0 120C0 100 0 80 0 60C0 40 0 20 0 10L0 0L86 0L82.8 10C79.7 20 73.3 40 76.7 60C80 80 93 100 94.7 120C96.3 140 86.7 160 86.7 180C86.7 200 96.3 220 94.7 240C93 260 80 280 75.2 300C70.3 320 73.7 340 68.8 360C64 380 51 400 46.2 420C41.3 440 44.7 460 48 480C51.3 500 54.7 520 56.3 530L58 540Z" fill="#185a9d"></path></svg>