<svg width="48" height="48" viewBox="0 0 48 48" fill="none" xmlns="http://www.w3.org/2000/svg">
<rect x="0.5" y="0.5" width="47" height="47" rx="11.5" fill="#060606" stroke="#F9EF90"/>
<path d="M26.9266 31.9115C28.5919 33.5715 28.5919 36.2631 26.9266 37.9232C25.2614 39.5833 22.5613 39.5833 20.8961 37.9232C19.2308 36.2631 19.2308 33.5715 20.8961 31.9115C22.5613 30.2514 25.2614 30.2514 26.9266 31.9115Z" fill="#F7AD55"/>
<path d="M26.9266 31.9115C25.2614 30.2514 22.5613 30.2514 20.8961 31.9115C19.2308 33.5715 19.2308 36.2631 20.8961 37.9232C21.4473 38.4728 22.1122 38.8392 22.8153 39.0249C22.7309 38.806 22.6606 38.5828 22.6215 38.3518C22.5472 37.9121 22.5964 37.434 22.852 37.0681C23.1912 36.5824 23.8112 36.3882 24.3927 36.2692C25.5801 36.0265 26.8045 35.9674 28.0103 36.0895C28.4223 34.653 28.0616 33.0428 26.9266 31.9115Z" fill="#F49634"/>
<path d="M24.0047 17.624H23.818C22.0937 17.624 20.6828 16.2132 20.6828 14.4888V11.6632C20.6828 9.93885 22.0936 8.52795 23.818 8.52795H24.0047C25.729 8.52795 27.1399 9.93879 27.1399 11.6632V14.4888C27.1399 16.2131 25.729 17.624 24.0047 17.624Z" fill="#F7AD55"/>
<path d="M14.0717 31.4105V21.2462C14.0717 15.8513 18.4996 11.4373 23.9114 11.4373C29.3232 11.4373 33.751 15.8513 33.751 21.2462V31.4105H14.0717Z" fill="#F9EF90"/>
<path d="M18.983 12.7657C16.0523 14.4694 14.0717 17.6383 14.0717 21.2462V31.4106H17.815C16.9721 25.1999 17.3648 18.8223 18.983 12.7657Z" fill="#F4D37F"/>
<path d="M35.5491 34.4597C36.9386 34.4597 37.8496 32.9994 37.223 31.763C36.2265 29.7965 34.1785 28.4398 31.8282 28.4398H15.9945C13.6441 28.4398 11.5962 29.7965 10.5997 31.763C9.97315 32.9994 10.8841 34.4597 12.2736 34.4597H35.5491Z" fill="#F4D37F"/>
<path d="M18.3179 34.4597C17.9166 32.4734 17.6458 30.4612 17.5027 28.4398H15.9945C13.6441 28.4398 11.5962 29.7965 10.5997 31.763C9.97315 32.9994 10.8841 34.4597 12.2736 34.4597H18.3179Z" fill="#F3BE77"/>
<path d="M37.7459 31.7138C37.0297 30.1825 35.7554 29.015 34.2379 28.4101V21.2589C34.2379 18.5182 33.1634 15.9342 31.2123 13.9831C30.1722 12.943 28.9522 12.1522 27.6246 11.6402C27.5629 9.6527 25.8854 8.16078 23.9365 8.16003C21.9876 8.15929 20.3099 9.65375 20.2483 11.6402C18.9206 12.1522 17.7007 12.943 16.6606 13.9831C14.7095 15.9342 13.635 18.5182 13.635 21.2589V23.0775C13.635 23.3331 13.8422 23.5404 14.0978 23.5404C14.3535 23.5404 14.5607 23.3331 14.5607 23.0775V21.2589C14.5607 18.7655 15.539 16.414 17.3153 14.6376C19.0915 12.8613 21.443 11.8831 23.9365 11.8831C26.43 11.8831 28.7815 12.8614 30.5578 14.6376C32.3341 16.4139 33.3124 18.7654 33.3124 21.2589V28.119C32.8388 28.0084 32.3497 27.9495 31.8525 27.9495H16.0205C15.5233 27.9495 15.0342 28.0084 14.5606 28.119V24.9385C14.5606 24.6829 14.3534 24.4756 14.0978 24.4756C13.8421 24.4756 13.6349 24.6829 13.6349 24.9385V28.4101C12.1174 29.015 10.8431 30.1825 10.127 31.7138C9.44154 33.1795 10.5454 34.9134 12.1616 34.9134H19.2133C19.1983 36.1431 19.6579 37.3776 20.5941 38.3138C22.4161 40.1358 25.4567 40.1358 27.2787 38.3138C28.2149 37.3777 28.6745 36.1431 28.6595 34.9134H35.7112C37.3273 34.9134 38.4314 33.1797 37.7459 31.7138ZM35.7113 33.9877H12.1616C11.2136 33.9877 10.5632 32.9661 10.9656 32.1059C11.8834 30.1433 13.8675 28.8752 16.0205 28.8752H31.8524C34.0053 28.8752 35.9895 30.1433 36.9073 32.1059C37.3097 32.9662 36.6589 33.9877 35.7113 33.9877ZM26.6241 37.6592C25.1594 39.1239 22.7135 39.124 21.2487 37.6592C20.493 36.9034 20.1235 35.906 20.1385 34.9134H27.7342C27.7493 35.906 27.3799 36.9034 26.6241 37.6592ZM23.8383 9.08574C25.2036 9.07093 26.4397 9.9227 26.667 11.3247C25.7876 11.0826 24.8712 10.9574 23.9365 10.9574C23.0017 10.9574 22.0853 11.0826 21.2059 11.3247C21.4114 10.0569 22.5134 9.08574 23.8383 9.08574Z" fill="#18191A"/>
<path d="M26.0423 21.3213C25.7866 21.3213 25.5795 21.5285 25.5795 21.7841C25.5795 22.1096 25.3147 22.3743 24.9893 22.3743C24.6639 22.3743 24.3991 22.1096 24.3991 21.7841C24.3991 21.5285 24.192 21.3213 23.9363 21.3213C23.6806 21.3213 23.4734 21.5285 23.4734 21.7841C23.4734 22.1096 23.2087 22.3743 22.8833 22.3743C22.5579 22.3743 22.2931 22.1096 22.2931 21.7841C22.2931 21.5285 22.0859 21.3213 21.8303 21.3213C21.5746 21.3213 21.3674 21.5285 21.3674 21.7841C21.3674 22.62 22.0474 23.3 22.8833 23.3C23.2921 23.3 23.6633 23.1371 23.9363 22.8731C24.2092 23.1371 24.5805 23.3 24.9892 23.3C25.8251 23.3 26.5051 22.62 26.5051 21.7841C26.5052 21.5285 26.298 21.3213 26.0423 21.3213Z" fill="#18191A"/>
<path d="M18.9361 21.816C19.1918 21.816 19.3989 21.6087 19.3989 21.3531V20.5631C19.3989 20.3075 19.1918 20.1002 18.9361 20.1002C18.6804 20.1002 18.4732 20.3075 18.4732 20.5631V21.3531C18.4732 21.6087 18.6804 21.816 18.9361 21.816Z" fill="#18191A"/>
<path d="M28.9367 21.816C29.1924 21.816 29.3996 21.6087 29.3996 21.3531V20.5631C29.3996 20.3075 29.1924 20.1002 28.9367 20.1002C28.681 20.1002 28.4738 20.3075 28.4738 20.5631V21.3531C28.4738 21.6087 28.681 21.816 28.9367 21.816Z" fill="#18191A"/>
</svg>
