<svg width="113" height="32" viewBox="0 0 113 32" fill="none" xmlns="http://www.w3.org/2000/svg">
<rect x="0.5" y="0.5" width="31" height="31" rx="4.5" fill="#060606" stroke="#F9EF90"/>
<path d="M17.9509 21.2741C19.0611 22.3809 19.0611 24.1753 17.9509 25.282C16.8407 26.3887 15.0407 26.3887 13.9305 25.282C12.8204 24.1753 12.8204 22.3809 13.9305 21.2741C15.0407 20.1674 16.8407 20.1674 17.9509 21.2741Z" fill="#F7AD55"/>
<path d="M17.9509 21.2741C16.8407 20.1674 15.0407 20.1674 13.9305 21.2741C12.8204 22.3809 12.8204 24.1753 13.9305 25.282C14.2981 25.6484 14.7413 25.8927 15.21 26.0165C15.1538 25.8705 15.1069 25.7217 15.0808 25.5677C15.0313 25.2746 15.0641 24.9558 15.2345 24.7119C15.4606 24.3881 15.8739 24.2587 16.2617 24.1793C17.0532 24.0175 17.8695 23.9781 18.6734 24.0595C18.948 23.1018 18.7075 22.0284 17.9509 21.2741Z" fill="#F49634"/>
<path d="M16.003 11.7494H15.8786C14.729 11.7494 13.7885 10.8088 13.7885 9.65921V7.77546C13.7885 6.6259 14.729 5.6853 15.8786 5.6853H16.003C17.1526 5.6853 18.0932 6.62586 18.0932 7.77546V9.65921C18.0932 10.8088 17.1526 11.7494 16.003 11.7494Z" fill="#F7AD55"/>
<path d="M9.3811 20.9403V14.1641C9.3811 10.5674 12.333 7.62476 15.9409 7.62476C19.5488 7.62476 22.5007 10.5674 22.5007 14.1641V20.9403H9.3811Z" fill="#F9EF90"/>
<path d="M12.6553 8.51025C10.7015 9.64603 9.3811 11.7586 9.3811 14.1639V20.9402H11.8767C11.3147 16.7997 11.5765 12.548 12.6553 8.51025Z" fill="#F4D37F"/>
<path d="M23.6993 22.973C24.6256 22.973 25.233 21.9994 24.8153 21.1752C24.1509 19.8641 22.7856 18.9597 21.2187 18.9597H10.6629C9.096 18.9597 7.73069 19.8641 7.06636 21.1752C6.64869 21.9994 7.25599 22.973 8.18231 22.973H23.6993Z" fill="#F4D37F"/>
<path d="M12.2118 22.973C11.9443 21.6487 11.7638 20.3073 11.6684 18.9597H10.6629C9.096 18.9597 7.73069 19.8641 7.06636 21.1752C6.64869 21.9994 7.25599 22.973 8.18231 22.973H12.2118Z" fill="#F3BE77"/>
<path d="M25.1638 21.1424C24.6864 20.1216 23.8369 19.3432 22.8252 18.94V14.1725C22.8252 12.3454 22.1089 10.6227 20.8081 9.32197C20.1147 8.62856 19.3014 8.10136 18.4164 7.76008C18.3752 6.43505 17.2569 5.44044 15.9576 5.43994C14.6583 5.43945 13.5399 6.43575 13.4988 7.76008C12.6137 8.10136 11.8004 8.6286 11.107 9.32197C9.8063 10.6227 9.08993 12.3454 9.08993 14.1725V15.3849C9.08993 15.5553 9.22804 15.6935 9.39849 15.6935C9.56895 15.6935 9.70706 15.5553 9.70706 15.3849V14.1725C9.70706 12.5102 10.3593 10.9426 11.5435 9.75833C12.7276 8.57413 14.2953 7.92198 15.9576 7.92198C17.6199 7.92198 19.1876 8.57417 20.3718 9.75833C21.556 10.9425 22.2082 12.5102 22.2082 14.1725V18.7459C21.8925 18.6722 21.5664 18.6329 21.235 18.6329H10.6802C10.3488 18.6329 10.0227 18.6722 9.70702 18.7459V16.6256C9.70702 16.4552 9.5689 16.317 9.39845 16.317C9.228 16.317 9.08988 16.4552 9.08988 16.6256V18.94C8.07823 19.3432 7.22868 20.1216 6.75127 21.1424C6.2943 22.1196 7.03021 23.2755 8.10765 23.2755H12.8088C12.7988 24.0953 13.1052 24.9183 13.7293 25.5425C14.944 26.7571 16.9711 26.7571 18.1857 25.5425C18.8099 24.9184 19.1162 24.0953 19.1062 23.2755H23.8074C24.8848 23.2755 25.6209 22.1197 25.1638 21.1424ZM23.8075 22.6584H8.10765C7.47566 22.6584 7.04206 21.9773 7.31031 21.4038C7.92218 20.0955 9.24495 19.25 10.6802 19.25H21.2349C22.6702 19.25 23.9929 20.0954 24.6048 21.4038C24.8731 21.9774 24.4392 22.6584 23.8075 22.6584ZM17.7493 25.106C16.7729 26.0825 15.1423 26.0826 14.1657 25.106C13.6619 24.6022 13.4156 23.9373 13.4256 23.2755H18.4894C18.4995 23.9373 18.2532 24.6022 17.7493 25.106ZM15.8922 6.05708C16.8023 6.0472 17.6264 6.61505 17.7779 7.54972C17.1917 7.38832 16.5807 7.30484 15.9576 7.30484C15.3344 7.30484 14.7235 7.38832 14.1372 7.54972C14.2742 6.70454 15.0089 6.05708 15.8922 6.05708Z" fill="#18191A"/>
<path d="M17.3615 14.2141C17.191 14.2141 17.0529 14.3523 17.0529 14.5227C17.0529 14.7396 16.8764 14.9161 16.6595 14.9161C16.4425 14.9161 16.266 14.7396 16.266 14.5227C16.266 14.3523 16.1279 14.2141 15.9575 14.2141C15.787 14.2141 15.6489 14.3523 15.6489 14.5227C15.6489 14.7396 15.4724 14.9161 15.2555 14.9161C15.0385 14.9161 14.862 14.7396 14.862 14.5227C14.862 14.3523 14.7239 14.2141 14.5534 14.2141C14.383 14.2141 14.2449 14.3523 14.2449 14.5227C14.2449 15.0799 14.6982 15.5333 15.2555 15.5333C15.528 15.5333 15.7755 15.4246 15.9575 15.2486C16.1394 15.4246 16.3869 15.5333 16.6594 15.5333C17.2167 15.5333 17.67 15.0799 17.67 14.5227C17.6701 14.3523 17.5319 14.2141 17.3615 14.2141Z" fill="#18191A"/>
<path d="M12.624 14.544C12.7945 14.544 12.9326 14.4058 12.9326 14.2354V13.7087C12.9326 13.5383 12.7945 13.4001 12.624 13.4001C12.4535 13.4001 12.3154 13.5383 12.3154 13.7087V14.2354C12.3154 14.4058 12.4535 14.544 12.624 14.544Z" fill="#18191A"/>
<path d="M19.291 14.544C19.4614 14.544 19.5996 14.4058 19.5996 14.2354V13.7087C19.5996 13.5383 19.4614 13.4001 19.291 13.4001C19.1205 13.4001 18.9824 13.5383 18.9824 13.7087V14.2354C18.9824 14.4058 19.1205 14.544 19.291 14.544Z" fill="#18191A"/>
<path d="M45.0909 22H41.1477V10.3636H45.1705C46.3258 10.3636 47.3182 10.5966 48.1477 11.0625C48.9811 11.5246 49.6212 12.1894 50.0682 13.0568C50.5152 13.9242 50.7386 14.9621 50.7386 16.1705C50.7386 17.3826 50.5133 18.4242 50.0625 19.2955C49.6155 20.1667 48.9697 20.8352 48.125 21.3011C47.2841 21.767 46.2727 22 45.0909 22ZM43.2557 20.1761H44.9886C45.7992 20.1761 46.4754 20.0284 47.017 19.733C47.5587 19.4337 47.9659 18.9886 48.2386 18.3977C48.5114 17.803 48.6477 17.0606 48.6477 16.1705C48.6477 15.2803 48.5114 14.5417 48.2386 13.9545C47.9659 13.3636 47.5625 12.9223 47.0284 12.6307C46.4981 12.3352 45.839 12.1875 45.0511 12.1875H43.2557V20.1761ZM56.5142 22.1705C55.6392 22.1705 54.8835 21.9886 54.2472 21.625C53.6146 21.2576 53.1278 20.7386 52.7869 20.0682C52.446 19.3939 52.2756 18.6004 52.2756 17.6875C52.2756 16.7898 52.446 16.0019 52.7869 15.3239C53.1316 14.642 53.6127 14.1117 54.2301 13.733C54.8475 13.3504 55.5729 13.1591 56.4062 13.1591C56.9441 13.1591 57.4517 13.2462 57.929 13.4205C58.41 13.5909 58.8343 13.8561 59.2017 14.2159C59.5729 14.5758 59.8646 15.0341 60.0767 15.5909C60.2888 16.1439 60.3949 16.803 60.3949 17.5682V18.1989H53.2415V16.8125H58.4233C58.4195 16.4186 58.3343 16.0682 58.1676 15.7614C58.0009 15.4508 57.768 15.2064 57.4688 15.0284C57.1733 14.8504 56.8286 14.7614 56.4347 14.7614C56.0142 14.7614 55.6449 14.8636 55.3267 15.0682C55.0085 15.2689 54.7604 15.5341 54.5824 15.8636C54.4081 16.1894 54.3191 16.5473 54.3153 16.9375V18.1477C54.3153 18.6553 54.4081 19.0909 54.5938 19.4545C54.7794 19.8144 55.0388 20.0909 55.3722 20.2841C55.7055 20.4735 56.0956 20.5682 56.5426 20.5682C56.8419 20.5682 57.1127 20.5265 57.3551 20.4432C57.5975 20.3561 57.8078 20.2292 57.9858 20.0625C58.1638 19.8958 58.2983 19.6894 58.3892 19.4432L60.3097 19.6591C60.1884 20.1667 59.9574 20.6098 59.6165 20.9886C59.2794 21.3636 58.8475 21.6553 58.321 21.8636C57.7945 22.0682 57.1922 22.1705 56.5142 22.1705ZM62.2259 22V10.3636H69.6804V12.1307H64.3338V15.2898H69.169V17.0568H64.3338V22H62.2259ZM71.5099 22V13.2727H73.5668V22H71.5099ZM72.544 12.0341C72.2183 12.0341 71.938 11.9261 71.7031 11.7102C71.4683 11.4905 71.3509 11.2273 71.3509 10.9205C71.3509 10.6098 71.4683 10.3466 71.7031 10.1307C71.938 9.91098 72.2183 9.80114 72.544 9.80114C72.8736 9.80114 73.1539 9.91098 73.3849 10.1307C73.6198 10.3466 73.7372 10.6098 73.7372 10.9205C73.7372 11.2273 73.6198 11.4905 73.3849 11.7102C73.1539 11.9261 72.8736 12.0341 72.544 12.0341ZM77.267 22H75.017L79.1136 10.3636H81.7159L85.8182 22H83.5682L80.4602 12.75H80.3693L77.267 22ZM77.3409 17.4375H83.4773V19.1307H77.3409V17.4375ZM89.3168 10.3636V22H87.2599V10.3636H89.3168ZM95.2955 22.1705C94.4205 22.1705 93.6648 21.9886 93.0284 21.625C92.3958 21.2576 91.9091 20.7386 91.5682 20.0682C91.2273 19.3939 91.0568 18.6004 91.0568 17.6875C91.0568 16.7898 91.2273 16.0019 91.5682 15.3239C91.9129 14.642 92.3939 14.1117 93.0114 13.733C93.6288 13.3504 94.3542 13.1591 95.1875 13.1591C95.7254 13.1591 96.233 13.2462 96.7102 13.4205C97.1913 13.5909 97.6155 13.8561 97.983 14.2159C98.3542 14.5758 98.6458 15.0341 98.858 15.5909C99.0701 16.1439 99.1761 16.803 99.1761 17.5682V18.1989H92.0227V16.8125H97.2045C97.2008 16.4186 97.1155 16.0682 96.9489 15.7614C96.7822 15.4508 96.5492 15.2064 96.25 15.0284C95.9545 14.8504 95.6098 14.7614 95.2159 14.7614C94.7955 14.7614 94.4261 14.8636 94.108 15.0682C93.7898 15.2689 93.5417 15.5341 93.3636 15.8636C93.1894 16.1894 93.1004 16.5473 93.0966 16.9375V18.1477C93.0966 18.6553 93.1894 19.0909 93.375 19.4545C93.5606 19.8144 93.8201 20.0909 94.1534 20.2841C94.4867 20.4735 94.8769 20.5682 95.3239 20.5682C95.6231 20.5682 95.8939 20.5265 96.1364 20.4432C96.3788 20.3561 96.589 20.2292 96.767 20.0625C96.9451 19.8958 97.0795 19.6894 97.1705 19.4432L99.0909 19.6591C98.9697 20.1667 98.7386 20.6098 98.3977 20.9886C98.0606 21.3636 97.6288 21.6553 97.1023 21.8636C96.5758 22.0682 95.9735 22.1705 95.2955 22.1705ZM100.916 22V13.2727H102.911V14.7273H103.001C103.161 14.2235 103.433 13.8352 103.82 13.5625C104.21 13.286 104.655 13.1477 105.155 13.1477C105.268 13.1477 105.395 13.1534 105.536 13.1648C105.679 13.1723 105.799 13.1856 105.893 13.2045V15.0966C105.806 15.0663 105.668 15.0398 105.479 15.017C105.293 14.9905 105.113 14.9773 104.939 14.9773C104.564 14.9773 104.227 15.0587 103.928 15.2216C103.632 15.3807 103.399 15.6023 103.229 15.8864C103.058 16.1705 102.973 16.4981 102.973 16.8693V22H100.916ZM112.087 13.2727V14.8636H107.07V13.2727H112.087ZM108.308 11.1818H110.365V19.375C110.365 19.6515 110.407 19.8636 110.49 20.0114C110.577 20.1553 110.691 20.2538 110.831 20.3068C110.971 20.3598 111.126 20.3864 111.297 20.3864C111.426 20.3864 111.543 20.3769 111.649 20.358C111.759 20.339 111.842 20.322 111.899 20.3068L112.246 21.9148C112.136 21.9527 111.979 21.9943 111.774 22.0398C111.573 22.0852 111.327 22.1117 111.036 22.1193C110.52 22.1345 110.056 22.0568 109.643 21.8864C109.231 21.7121 108.903 21.4432 108.661 21.0795C108.422 20.7159 108.304 20.2614 108.308 19.7159V11.1818Z" fill="#F9EF90"/>
</svg>
