<svg width="30" height="30" viewBox="0 0 30 30" fill="none" xmlns="http://www.w3.org/2000/svg">
<path d="M18.7976 13.8507C20.512 13.8507 21.9067 12.456 21.9067 10.7416V3.10904C21.9067 1.39471 20.512 0 18.7976 0C17.0832 0 15.6885 1.39471 15.6885 3.10904V10.7416C15.6885 12.456 17.0833 13.8507 18.7976 13.8507Z" fill="#667085"/>
<path d="M24.6611 13.8508H26.8914C28.6057 13.8508 30.0004 12.456 30.0004 10.7416C30.0004 9.02728 28.6057 7.63257 26.8914 7.63257C25.177 7.63257 23.7822 9.02728 23.7822 10.7416V12.9719C23.7822 13.4573 24.1757 13.8508 24.6611 13.8508Z" fill="#667085"/>
<path d="M3.10904 14.3112H10.7416C12.4559 14.3112 13.8506 12.9164 13.8506 11.202C13.8506 9.48773 12.4559 8.09302 10.7416 8.09302H3.10904C1.39471 8.09308 0 9.48778 0 11.2021C0 12.9164 1.39471 14.3112 3.10904 14.3112Z" fill="#667085"/>
<path d="M10.7419 6.21809H12.972C13.4574 6.21809 13.8509 5.82457 13.8509 5.33918V3.10904C13.8509 1.39471 12.4562 0 10.7419 0C9.02752 0 7.63281 1.39471 7.63281 3.10904C7.63281 4.82338 9.02752 6.21809 10.7419 6.21809Z" fill="#667085"/>
<path d="M11.2018 16.1492C9.48748 16.1492 8.09277 17.5439 8.09277 19.2583V26.8908C8.09277 28.6052 9.48748 30 11.2018 30C12.9163 30 14.311 28.6052 14.311 26.8908V19.2583C14.311 17.5439 12.9162 16.1492 11.2018 16.1492Z" fill="#667085"/>
<path d="M5.33924 16.1492H3.10904C1.39471 16.1492 0 17.5439 0 19.2583C0 20.9727 1.39471 22.3674 3.10904 22.3674C4.82344 22.3674 6.2182 20.9727 6.2182 19.2583V17.0281C6.21814 16.5427 5.82463 16.1492 5.33924 16.1492Z" fill="#667085"/>
<path d="M26.8909 15.6887H19.2585C17.5441 15.6887 16.1494 17.0835 16.1494 18.7979C16.1494 20.5122 17.5441 21.9069 19.2585 21.9069H26.891C28.6053 21.9069 30 20.5122 30 18.7979C30 17.0835 28.6053 15.6887 26.8909 15.6887Z" fill="#667085"/>
<path d="M19.2585 23.7817H17.0283C16.5429 23.7817 16.1494 24.1753 16.1494 24.6606V26.8908C16.1494 28.6052 17.5441 30 19.2585 30C20.9729 30 22.3676 28.6052 22.3676 26.8908C22.3676 25.1765 20.9729 23.7817 19.2585 23.7817Z" fill="#667085"/>
</svg>
